HIERARCHY
ROOT Hips
{
	OFFSET -322.846497 91.085190 447.741394
	CHANNELS 6 Xposition Yposition Zposition Zrotation Yrotation Xrotation 
	JOINT LeftUpLeg
	{
		OFFSET 0.103462 1.857844 10.548508
		CHANNELS 3 Zrotation Yrotation Xrotation
		JOINT LeftLeg
		{
			OFFSET 43.500000 -0.000046 -0.000008
			CHANNELS 3 Zrotation Yrotation Xrotation
			JOINT LeftFoot
			{
				OFFSET 42.372192 0.000000 0.000004
				CHANNELS 3 Zrotation Yrotation Xrotation
				JOINT LeftToe
				{
					OFFSET 17.299997 -0.000003 0.000018
					CHANNELS 3 Zrotation Yrotation Xrotation
					End Site
					{
						OFFSET 0.000000 0.000000 0.000000
					}
				}
			}
		}
	}
	JOINT RightUpLeg
	{
		OFFSET 0.103459 1.857830 -10.548515
		CHANNELS 3 Zrotation Yrotation Xrotation
		JOINT RightLeg
		{
			OFFSET 43.500046 -0.000034 -0.000006
			CHANNELS 3 Zrotation Yrotation Xrotation
			JOINT RightFoot
			{
				OFFSET 42.372253 0.000015 -0.000006
				CHANNELS 3 Zrotation Yrotation Xrotation
				JOINT RightToe
				{
					OFFSET 17.299969 -0.000012 0.000010
					CHANNELS 3 Zrotation Yrotation Xrotation
					End Site
					{
						OFFSET 0.000000 0.000000 0.000000
					}
				}
			}
		}
	}
	JOINT Spine
	{
		OFFSET 6.901964 -2.603727 0.000001
		CHANNELS 3 Zrotation Yrotation Xrotation
		JOINT Spine1
		{
			OFFSET 12.588105 -0.000009 0.000006
			CHANNELS 3 Zrotation Yrotation Xrotation
			JOINT Spine2
			{
				OFFSET 12.343197 0.000007 -0.000002
				CHANNELS 3 Zrotation Yrotation Xrotation
				JOINT Neck
				{
					OFFSET 25.832897 0.000002 -0.000001
					CHANNELS 3 Zrotation Yrotation Xrotation
					JOINT Head
					{
						OFFSET 11.766611 0.000000 0.000004
						CHANNELS 3 Zrotation Yrotation Xrotation
						End Site
						{
							OFFSET 0.000000 0.000000 0.000000
						}
					}
				}
				JOINT LeftShoulder
				{
					OFFSET 19.745911 -1.480377 6.000110
					CHANNELS 3 Zrotation Yrotation Xrotation
					JOINT LeftArm
					{
						OFFSET 11.284108 -0.000006 -0.000027
						CHANNELS 3 Zrotation Yrotation Xrotation
						JOINT LeftForeArm
						{
							OFFSET 33.000046 -0.000010 0.000031
							CHANNELS 3 Zrotation Yrotation Xrotation
							JOINT LeftHand
							{
								OFFSET 25.200014 0.000009 0.000001
								CHANNELS 3 Zrotation Yrotation Xrotation
								End Site
								{
									OFFSET 0.000000 0.000000 0.000000
								}
							}
						}
					}
				}
				JOINT RightShoulder
				{
					OFFSET 19.746105 -1.480358 -6.000092
					CHANNELS 3 Zrotation Yrotation Xrotation
					JOINT RightArm
					{
						OFFSET 11.284138 -0.000011 -0.000001
						CHANNELS 3 Zrotation Yrotation Xrotation
						JOINT RightForeArm
						{
							OFFSET 33.000088 0.000023 -0.000007
							CHANNELS 3 Zrotation Yrotation Xrotation
							JOINT RightHand
							{
								OFFSET 25.199776 0.000128 0.000427
								CHANNELS 3 Zrotation Yrotation Xrotation
								End Site
								{
									OFFSET 0.000000 0.000000 0.000000
								}
							}
						}
					}
				}
			}
		}
	}
}
MOTION
Frames: 11
Frame Time: 0.033333
-124.362396 154.951202 -285.503387 81.602387 9.311925 148.202606 161.630758 -16.059209 -175.375325 -29.978322 -1.334790 6.728581 106.788409 -4.701591 -22.580189 21.454551 0.003092 -0.000003 128.738930 -0.577492 -166.981842 -94.724164 -1.566706 -6.520382 99.342588 5.864569 16.535540 21.454560 -0.003110 -0.000019 7.220392 -0.365109 -1.362371 4.436149 -0.678263 -2.737635 4.118407 -0.694644 -2.733496 3.818884 8.186005 -6.215486 -16.682517 5.068303 -6.731466 -125.934085 -83.490334 -56.176936 12.143690 50.842986 34.931309 -61.237557 -18.681107 2.397422 -3.325431 -11.233916 36.429941 -176.497593 73.377733 4.959484 35.830957 -52.978007 -52.820653 -45.700949 10.658848 -1.359060 1.976786 5.646490 -12.923001 
-124.188797 154.959396 -284.587189 81.626177 9.842306 149.935397 161.459375 -16.739701 -174.396805 -30.145088 -1.521110 7.405805 107.005391 -5.107300 -22.755077 21.454553 0.003087 -0.000007 127.609435 -3.739299 -167.872266 -91.942870 -1.261304 -6.053768 99.665793 5.319806 14.694145 21.454558 -0.003112 -0.000016 7.248564 -0.448813 -1.434182 4.495016 -0.842141 -2.884630 4.177316 -0.859400 -2.879491 3.283604 8.189918 -6.156299 -16.146931 5.655322 -6.802168 -125.455057 -83.235779 -56.675086 12.006167 50.402958 34.696214 -59.132773 -19.407481 2.367433 -2.145297 -10.812528 35.778624 -175.687820 73.473390 5.792452 35.724611 -53.693090 -53.903358 -44.795382 10.645629 -1.331768 2.848308 4.001029 -13.741610 
-124.003799 154.894394 -283.694092 81.832736 10.158429 152.092303 161.110980 -16.943893 -172.477371 -30.389950 -1.896358 7.750427 107.233000 -5.281862 -22.916808 21.454555 0.003084 -0.000007 126.652334 -6.676605 -169.206995 -88.868971 -0.817711 -4.753958 99.804254 4.190806 12.393719 21.454558 -0.003105 -0.000020 7.298870 -0.563685 -1.580274 4.599901 -1.064708 -3.181639 4.282278 -1.083760 -3.175148 2.925957 8.599139 -6.164593 -15.988522 5.629033 -6.681782 -127.520971 -83.369897 -54.585041 12.255109 49.962615 34.541390 -57.342095 -19.859395 2.331767 -0.926397 -10.007151 35.096387 -174.785019 73.391168 6.718752 35.641116 -54.115452 -54.602561 -44.679741 10.580549 -1.324111 3.121426 2.417672 -14.175861 
-123.803101 154.804001 -282.804413 82.175782 10.389758 154.687201 160.655024 -16.930096 -170.505742 -30.628187 -2.214003 8.274958 107.411309 -5.593768 -23.085648 21.454551 0.003092 0.000001 126.128377 -9.270094 -170.504826 -85.490548 -0.621770 -2.749142 99.798004 2.598358 9.879922 21.454560 -0.003113 -0.000016 7.383071 -0.672212 -1.802927 4.773750 -1.270128 -3.632052 4.456265 -1.291888 -3.624314 2.739897 8.986921 -6.191823 -16.239082 5.496552 -6.585395 -129.188985 -83.632682 -52.886991 12.379002 49.737233 34.535151 -55.656701 -20.149584 2.290145 -0.006174 -9.233868 34.008509 -174.209193 73.171195 7.307998 35.745891 -54.227051 -55.119459 -45.298286 10.381489 -1.328819 3.023178 2.050386 -14.395001 
-123.586800 154.657394 -281.962097 82.732551 10.393307 157.613404 160.178400 -16.557097 -169.041021 -30.880672 -2.271502 9.153361 107.554791 -6.164115 -23.281325 21.454550 0.003086 -0.000004 126.255077 -11.245996 -171.860701 -81.985178 -0.646845 -0.315187 99.724088 0.767532 7.706800 21.454558 -0.003115 -0.000016 7.496085 -0.804698 -2.009705 5.006739 -1.522375 -4.052440 4.689379 -1.546667 -4.043191 2.551921 9.080412 -6.311108 -16.519256 5.698752 -6.761482 -129.101066 -83.929433 -52.958036 11.743040 50.031477 34.201636 -54.148613 -20.206859 2.240185 0.567180 -8.513352 32.862386 -173.286216 72.875202 8.253879 35.837446 -54.163219 -55.440492 -46.289199 10.251650 -1.349372 3.103754 1.972453 -14.034347 
-123.262199 154.332993 -281.108612 83.609397 10.008210 160.965811 159.697049 -15.663893 -168.066421 -31.423364 -2.120237 10.444312 107.904606 -6.971481 -23.453562 21.454551 0.003092 -0.000001 127.082363 -12.381104 -173.618696 -78.657995 -0.532531 1.855255 99.751457 -0.889331 5.395849 21.454558 -0.003106 -0.000017 7.637918 -0.973123 -2.187375 5.299309 -1.845739 -4.417306 4.982057 -1.872222 -4.406102 2.427534 8.709869 -6.626537 -16.993002 6.211477 -7.363818 -131.278012 -84.396570 -50.739037 10.690590 50.659281 33.455629 -52.998890 -20.117767 2.193872 1.323108 -7.739628 30.566121 -172.326397 72.792488 9.240137 36.061606 -54.135823 -55.920753 -47.089254 10.273249 -1.374804 3.241536 2.306824 -14.065443 
-122.946098 154.003006 -280.284485 84.655953 9.547553 164.504806 159.407381 -14.665497 -166.334736 -31.802396 -2.375943 11.390939 108.141285 -7.565993 -23.565589 21.454550 0.003085 -0.000001 128.859046 -12.814407 -175.109344 -74.737767 -0.361825 3.328939 98.325703 -2.110998 2.120841 21.454557 -0.003107 -0.000017 7.807721 -1.115494 -2.308268 5.646761 -2.117675 -4.668725 5.329580 -2.145666 -4.655881 2.651598 8.149124 -7.004329 -17.668475 6.699757 -8.110715 -132.935985 -84.737984 -49.050146 9.103065 51.670200 32.982055 -52.060597 -20.229851 2.169124 1.848353 -7.625817 28.181900 -172.052998 72.804653 9.521305 35.720639 -53.976099 -56.224010 -47.376740 10.156679 -1.375740 3.135844 2.602008 -14.011189 
-122.666397 153.726501 -279.523499 85.642608 9.189596 167.925009 159.107850 -13.933105 -164.697362 -32.165318 -2.803444 12.380014 108.233192 -8.228527 -23.607009 21.454550 0.003096 0.000003 131.689544 -13.205597 -175.749988 -70.216933 -0.272000 5.721947 97.814272 -4.362247 -5.292782 21.454558 -0.003107 -0.000017 7.948425 -1.191218 -2.304541 5.931350 -2.263355 -4.667736 5.614116 -2.291340 -4.654019 3.431975 7.497204 -7.346119 -18.768159 7.400880 -9.004502 -131.626952 -84.990270 -50.354053 8.121217 53.299586 32.166721 -52.603429 -19.902104 2.165576 1.826689 -7.887771 27.724764 -172.207975 72.788158 9.361824 35.170358 -53.660241 -56.194442 -47.478277 10.152719 -1.378562 2.793291 2.154649 -13.930537 
-122.329300 153.341293 -278.807709 86.426147 8.360453 171.324299 158.471781 -12.846801 -164.137888 -32.841872 -2.875313 13.899799 108.289596 -9.263885 -23.658957 21.454555 0.003093 0.000003 134.890308 -12.773699 -176.092413 -66.244352 0.468803 9.214683 101.754505 -6.897168 -14.540059 21.454560 -0.003107 -0.000017 7.989312 -1.260925 -2.207666 6.014219 -2.405978 -4.478581 5.696859 -2.432815 -4.463996 4.043797 5.988080 -7.849648 -19.600860 8.486090 -10.346305 -133.175985 -85.035206 -48.792027 7.692995 54.875908 32.195924 -53.910379 -19.727989 2.199230 1.204710 -7.618187 27.043863 -172.713696 73.261927 8.845455 35.201743 -53.446719 -56.091433 -47.485121 10.067079 -1.373052 2.886290 1.763229 -14.690062 
-122.055901 153.065308 -278.080994 86.926049 7.647364 174.380289 157.843377 -11.712007 -163.061395 -33.341719 -2.690349 14.821446 108.231505 -9.927159 -24.010528 21.454551 0.003102 0.000009 137.219580 -12.348602 -176.149609 -63.182754 0.906578 12.651932 105.234815 -8.687540 -20.241141 21.454558 -0.003103 -0.000011 7.979306 -1.288549 -1.983326 5.990776 -2.473213 -4.031332 5.673194 -2.497359 -4.016350 4.119168 4.733838 -8.510823 -19.855479 9.143132 -11.549284 -130.907966 -84.536964 -51.103089 7.010354 56.156849 32.871300 -55.656049 -19.526345 2.247563 1.056778 -7.606424 26.287564 -173.325626 73.559286 8.219201 34.474106 -53.057531 -55.961932 -46.956902 9.969996 -1.350580 3.267723 2.166360 -14.636324 
-121.922501 152.911499 -277.476990 87.311886 6.969199 176.173911 157.635070 -10.817001 -161.914866 -33.570796 -2.703940 15.026083 108.092012 -10.100958 -24.023169 21.454553 0.003097 0.000005 138.250993 -12.695604 -176.517715 -61.952930 0.239636 15.302470 106.929002 -10.011363 -21.024193 21.454558 -0.003109 -0.000017 7.967043 -1.339210 -1.486121 5.957328 -2.600548 -3.039681 5.639344 -2.618712 -3.023929 4.011830 4.032943 -9.147866 -20.338794 9.125448 -12.375679 -130.905111 -84.179035 -51.126882 8.159364 57.505979 33.471202 -58.593119 -18.925003 2.314045 1.035751 -6.895059 26.791986 -174.423907 73.557456 7.091352 32.952138 -52.345839 -55.373959 -46.482764 10.084889 -1.344027 3.703974 2.016697 -14.582912 
